<svg width="109" height="52" viewBox="0 0 109 52" fill="none" xmlns="http://www.w3.org/2000/svg">
<path d="M9.796 43.217C8.20467 43.217 6.77867 42.9587 5.518 42.442C4.25733 41.9253 3.24467 41.1607 2.48 40.148C1.736 39.1353 1.34333 37.916 1.302 36.49H6.944C7.02667 37.296 7.30567 37.916 7.781 38.35C8.25633 38.7633 8.87633 38.97 9.641 38.97C10.4263 38.97 11.0463 38.7943 11.501 38.443C11.9557 38.071 12.183 37.5647 12.183 36.924C12.183 36.3867 11.997 35.9423 11.625 35.591C11.2737 35.2397 10.8293 34.9503 10.292 34.723C9.77533 34.4957 9.03133 34.2373 8.06 33.948C6.65467 33.514 5.50767 33.08 4.619 32.646C3.73033 32.212 2.96567 31.5713 2.325 30.724C1.68433 29.8767 1.364 28.771 1.364 27.407C1.364 25.3817 2.09767 23.8007 3.565 22.664C5.03233 21.5067 6.944 20.928 9.3 20.928C11.6973 20.928 13.6297 21.5067 15.097 22.664C16.5643 23.8007 17.3497 25.392 17.453 27.438H11.718C11.6767 26.7353 11.4183 26.1877 10.943 25.795C10.4677 25.3817 9.858 25.175 9.114 25.175C8.47333 25.175 7.95667 25.3507 7.564 25.702C7.17133 26.0327 6.975 26.5183 6.975 27.159C6.975 27.8617 7.30567 28.4093 7.967 28.802C8.62833 29.1947 9.66167 29.6183 11.067 30.073C12.4723 30.5483 13.609 31.003 14.477 31.437C15.3657 31.871 16.1303 32.5013 16.771 33.328C17.4117 34.1547 17.732 35.219 17.732 36.521C17.732 37.761 17.4117 38.8873 16.771 39.9C16.151 40.9127 15.2417 41.7187 14.043 42.318C12.8443 42.9173 11.4287 43.217 9.796 43.217ZM31.5653 43L26.2953 35.746V43H20.9943V20.06H26.2953V32.739L31.5343 25.702H38.0753L30.8833 34.382L38.1373 43H31.5653ZM42.8234 23.904C41.8934 23.904 41.1287 23.6353 40.5294 23.098C39.9507 22.54 39.6614 21.858 39.6614 21.052C39.6614 20.2253 39.9507 19.5433 40.5294 19.006C41.1287 18.448 41.8934 18.169 42.8234 18.169C43.7327 18.169 44.4767 18.448 45.0554 19.006C45.6547 19.5433 45.9544 20.2253 45.9544 21.052C45.9544 21.858 45.6547 22.54 45.0554 23.098C44.4767 23.6353 43.7327 23.904 42.8234 23.904ZM45.4584 25.702V43H40.1574V25.702H45.4584ZM54.6009 20.06V43H49.2999V20.06H54.6009ZM63.7435 20.06V43H58.4425V20.06H63.7435ZM72.7931 21.238V34.258C72.7931 35.56 73.1134 36.5623 73.7541 37.265C74.3948 37.9677 75.3351 38.319 76.5751 38.319C77.8151 38.319 78.7658 37.9677 79.4271 37.265C80.0884 36.5623 80.4191 35.56 80.4191 34.258V21.238H85.7201V34.227C85.7201 36.1697 85.3068 37.8127 84.4801 39.156C83.6534 40.4993 82.5374 41.512 81.1321 42.194C79.7474 42.876 78.1974 43.217 76.4821 43.217C74.7668 43.217 73.2271 42.8863 71.8631 42.225C70.5198 41.543 69.4554 40.5303 68.6701 39.187C67.8848 37.823 67.4921 36.1697 67.4921 34.227V21.238H72.7931ZM94.7435 28.151C95.2602 27.345 95.9732 26.694 96.8825 26.198C97.7918 25.702 98.8562 25.454 100.076 25.454C101.502 25.454 102.793 25.8157 103.951 26.539C105.108 27.2623 106.017 28.2957 106.679 29.639C107.361 30.9823 107.702 32.5427 107.702 34.32C107.702 36.0973 107.361 37.668 106.679 39.032C106.017 40.3753 105.108 41.419 103.951 42.163C102.793 42.8863 101.502 43.248 100.076 43.248C98.8768 43.248 97.8125 43 96.8825 42.504C95.9732 42.008 95.2602 41.3673 94.7435 40.582V51.246H89.4425V25.702H94.7435V28.151ZM102.308 34.32C102.308 32.9973 101.936 31.964 101.192 31.22C100.468 30.4553 99.5692 30.073 98.4945 30.073C97.4405 30.073 96.5415 30.4553 95.7975 31.22C95.0742 31.9847 94.7125 33.0283 94.7125 34.351C94.7125 35.6737 95.0742 36.7173 95.7975 37.482C96.5415 38.2467 97.4405 38.629 98.4945 38.629C99.5485 38.629 100.448 38.2467 101.192 37.482C101.936 36.6967 102.308 35.6427 102.308 34.32Z" fill="#0B0B0E"/>
<path d="M27 23L75 1L83.5 11L90.5 15L99.5 19.2632L100 19.5" stroke="black"/>
</svg>
